<svg xmlns="http://www.w3.org/2000/svg" viewBox="0 0 477.867 477.867"><path d="M409.6 0a17.07 17.07 0 0 0-17.067 17.067V79.4C304.667-5.656 164.478-3.386 79.4 84.48a221.44 221.44 0 0 0-62.344 154.454A17.07 17.07 0 0 0 34.134 256 17.07 17.07 0 0 0 51.2 238.933c.02-103.682 84.088-187.717 187.77-187.696 52.657.01 102.888 22.135 138.442 60.976l-75.605 25.207a17.09 17.09 0 0 0-10.82 21.606 17.09 17.09 0 0 0 21.606 10.82l102.4-34.133a17.07 17.07 0 0 0 11.674-16.247v-102.4A17.07 17.07 0 0 0 409.6 0zm34.133 221.867a17.07 17.07 0 0 0-17.067 17.067c-.02 103.682-84.088 187.717-187.77 187.696-52.657-.01-102.888-22.135-138.442-60.976l75.605-25.207a17.09 17.09 0 0 0 10.82-21.606 17.09 17.09 0 0 0-21.606-10.82l-102.4 34.133a17.07 17.07 0 0 0-11.674 16.247v102.4a17.07 17.07 0 0 0 17.067 17.067 17.07 17.07 0 0 0 17.067-17.067v-62.345c87.866 85.067 228.056 82.798 313.122-5.068a221.44 221.44 0 0 0 62.344-154.454c.002-9.426-7.64-17.067-17.065-17.067z"/></svg>