<svg xmlns="http://www.w3.org/2000/svg" viewBox="0 0 512 512"><path d="M459.37 151.716c.325 4.548.325 9.097.325 13.645 0 138.72-105.583 298.558-298.558 298.558-59.452 0-114.68-17.22-161.137-47.106 8.447.974 16.568 1.3 25.34 1.3 49.055 0 94.213-16.568 130.274-44.832-46.132-.975-84.792-31.188-98.112-72.772 6.498.974 12.995 1.624 19.818 1.624 9.42 0 18.843-1.3 27.614-3.573-48.08-9.747-84.143-51.98-84.143-102.985v-1.3c13.97 7.797 30.214 12.67 47.43 13.32-28.264-18.843-46.78-51.005-46.78-87.39 0-19.492 5.197-37.36 14.294-52.954C87.4 130.924 165.035 172.507 252.1 177.056c-1.624-7.797-2.6-15.918-2.6-24.04 0-57.828 46.782-104.934 104.934-104.934 30.213 0 57.502 12.67 76.67 33.137 23.715-4.548 46.456-13.32 66.6-25.34-7.798 24.366-24.366 44.833-46.132 57.827 21.117-2.273 41.584-8.122 60.426-16.243-14.292 20.79-32.16 39.308-52.628 54.253z"/></svg>