<svg xmlns="http://www.w3.org/2000/svg" viewBox="0 0 106.059 106.059"><path d="M90.544 90.542c20.687-20.685 20.685-54.342.002-75.024-20.688-20.7-54.347-20.7-75.03-.005s-20.686 54.345.002 75.034c20.682 20.683 54.34 20.683 75.027-.005zM21.302 21.3c17.494-17.493 45.96-17.495 63.457.002s17.492 45.962-.002 63.455-45.96 17.496-63.455.002-17.496-45.965 0-63.46zm37.555 20.37c0-4.798 3.903-8.7 8.703-8.7s8.7 3.902 8.7 8.7a2.5 2.5 0 1 1-5 0c0-2.04-1.66-3.7-3.7-3.7s-3.703 1.66-3.703 3.7a2.5 2.5 0 1 1-5 0zm-27.723-.027c0-4.797 3.904-8.7 8.703-8.7s8.7 3.903 8.7 8.7a2.5 2.5 0 1 1-5 0c0-2.04-1.66-3.7-3.7-3.7s-3.703 1.66-3.703 3.7a2.5 2.5 0 1 1-5 0zm-1.11 22.35a3 3 0 0 1 1.62-3.921c.376-.155.766-.23 1.15-.23a3 3 0 0 1 2.771 1.85c2.777 6.686 9.655 11.004 17.523 11.004 7.7 0 14.528-4.32 17.42-11.01a3 3 0 0 1 3.944-1.563 3 3 0 0 1 1.562 3.944c-3.843 8.887-12.843 14.63-22.927 14.63-10.3 0-19.353-5.77-23.063-14.703z"/></svg>